<svg xmlns="http://www.w3.org/2000/svg" class="mb-2 svg-one" width="12" height="20" viewBox="0 0 12 20">
                <path d="M1.289 15.48c1.262 1.662 4.444 4.444 4.444 4.444s3.191-2.768 4.445-4.444c.827-.987 1.28-2.233 1.28-3.52 0-1.458-.658-3.267-1.156-5.036-.084-.306-2.484 2.525-2.626 4.112-.03.725.044 1.45.217 2.155.023.107 0 .125-.08.036-.526-.613-.838-1.38-.889-2.187-.044-1.924 1.92-3.316 1.778-5.569 0-4.035-2.538-5.467-3.36-5.467C6.267 4.991-.053 6.8.01 11.96c0 1.287.453 2.533 1.28 3.52z"></path>
              </svg>