<svg xmlns="http://www.w3.org/2000/svg" width="20" class="mb-2 svg-two" height="20" viewBox="0 0 20 20">
                <path d="M5.267.002C5.234.008 5.2.017 5.17.026h-.194l-.097.121-.025.025c-.09.073-.167.164-.218.267L.388 5.754 0 6.24l.364.485 8.908 11.456v.025l.024.024v.024l.024.025.025.024v.024l.024.024.024.025.024.024.025.048c.021.028.045.052.073.073l.485.631.485-.63c.028-.031.052-.064.073-.098.018-.015.034-.03.049-.048l.048-.073c.019-.024.034-.049.049-.073l8.932-11.505L20 6.24l-.388-.486L15.388.487c-.006-.015-.015-.033-.024-.048l-.097-.122V.293c-.015-.018-.03-.033-.049-.048l-.194-.219h-.194c-.079-.021-.16-.03-.243-.024-.024.006-.048.015-.072.024h-4.418c-.015-.009-.033-.018-.048-.024H9.95c-.024.006-.048.015-.072.024H5.485C5.415.008 5.34 0 5.267.002zm.85 1.578h2.208L6.117 4.152V1.58zm5.558 0h2.208v2.572L11.675 1.58zM10 1.992l2.985 3.471H7.04L10 1.993zm-5.437 1.02v2.451H2.621l1.942-2.451zm10.874 0l1.942 2.451h-1.942V3.012zM2.597 7.016h2.209l2.378 5.971-4.587-5.97zm3.884 0h7.014L10 15.78 6.48 7.016zm8.713 0h2.209l-4.587 5.971 2.378-5.97z"></path>
              </svg>