<svg xmlns="http://www.w3.org/2000/svg" class="mb-2 svg-five" width="18" height="18" viewBox="0 0 18 18">
                <path d="M8.603 0c-.223 0-.445.084-.617.25L6.29 1.888l-2.331-.33c-.475-.068-.917.255-1 .727l-.409 2.32L.473 5.71c-.424.225-.593.744-.383 1.175L1.125 9 .09 11.116c-.21.431-.041.951.383 1.176l2.08 1.103.407 2.32c.083.473.525.795 1 .728l2.334-.33 1.692 1.637c.344.333.892.333 1.237 0l1.694-1.637 2.331.33c.475.067.917-.255 1-.728l.409-2.32 2.078-1.103c.425-.225.593-.745.383-1.176L16.08 9l1.035-2.116c.21-.43.041-.95-.383-1.175l-2.08-1.103-.407-2.32c-.083-.473-.525-.796-1-.728l-2.334.33L9.22.25C9.05.084 8.826 0 8.603 0z"></path>
              </svg>