<svg xmlns="http://www.w3.org/2000/svg" width="18" class="mb-2 svg-four" height="17" viewBox="0 0 18 17">
                <path d="M0 0v.9c0 2.49 1.026 4.286 1.951 5.674C2.877 7.963 3.6 8.95 3.6 9.9h1.8c0-.015-.003-.028-.004-.042C6.277 11.85 7.2 12.6 7.2 12.6h3.6s.923-.75 1.804-2.742c0 .014-.004.027-.004.042h1.8c0-.95.723-1.937 1.649-3.326C16.974 5.186 18 3.39 18 .9V0H0zm1.972 1.8h1.874c.058 2.167.31 3.942.661 5.377-.334-.547-.706-1.073-1.058-1.601C2.726 4.49 2.177 3.289 1.972 1.8zm12.182 0h1.874c-.205 1.49-.754 2.691-1.477 3.776-.352.528-.724 1.054-1.058 1.601.35-1.435.603-3.21.66-5.377zM4.5 14.4v1.8h9v-1.8h-9z"></path>
              </svg>